<svg width="276" height="359" viewBox="0 0 276 359" fill="none" xmlns="http://www.w3.org/2000/svg">
<rect width="276" height="359" fill="#E5E5E5"/>
<g clip-path="url(#clip0)">
<path d="M172.864 13.9691C165.764 18.9691 153.264 30.1691 135.864 47.0691L122.764 59.8691H115.664C108.164 59.8691 103.364 61.7691 96.9645 67.3691C95.3645 68.7691 93.8645 69.8691 93.6645 69.8691C92.9645 69.8691 93.4645 68.9691 94.9645 67.3691C96.1645 66.2691 96.2645 65.3691 95.5645 64.6691C94.2645 63.3691 91.3645 64.9691 85.9645 69.8691C83.6645 71.8691 80.7645 73.9691 79.4645 74.3691C77.3645 74.9691 77.1645 74.8691 77.8645 73.2691C81.3645 64.6691 78.4645 65.0691 72.6645 73.9691C69.5645 78.6691 67.3645 80.8691 64.3645 82.1691C59.8645 84.1691 58.6645 85.8691 60.1645 88.4691C61.4645 90.7691 57.0645 97.7691 52.3645 100.769C50.3645 101.969 45.6645 105.969 41.7645 109.469C37.9645 113.069 33.5645 116.669 31.8645 117.569C30.2645 118.469 27.5645 120.269 25.9645 121.569C24.3645 122.869 21.3645 124.869 19.1645 125.969C17.0645 127.069 15.5645 128.369 15.8645 128.869C16.5645 130.069 22.0645 130.169 22.5645 129.069C22.7645 128.569 25.9645 126.069 29.7645 123.469C34.3645 120.269 36.3645 119.269 35.8645 120.469C35.4645 121.569 34.7645 123.669 34.3645 125.369C33.9645 126.969 32.1645 131.569 30.4645 135.569C27.1645 143.069 26.7645 145.469 28.3645 146.069C28.9645 146.269 28.6645 148.669 27.7645 152.369C26.7645 156.069 26.5645 158.469 27.1645 158.669C27.7645 158.869 25.4645 165.569 22.1645 173.669C13.5645 194.769 9.56448 208.269 11.4645 209.369C12.8645 210.269 14.7645 207.669 22.1645 193.969C27.3645 184.369 28.3645 183.069 27.7645 186.369C27.3645 188.569 26.4645 192.169 25.7645 194.369C24.0645 199.369 24.0645 199.869 25.6645 199.869C27.5645 199.869 34.3645 186.469 40.3645 170.569C43.2645 163.069 45.8645 156.969 46.0645 157.169C46.2645 157.369 45.9645 162.669 45.3645 168.969C44.7645 175.269 44.0645 189.469 43.6645 200.569C43.0645 219.069 43.1645 220.869 44.6645 220.869C45.8645 220.869 46.3645 221.769 46.3645 223.869C46.3645 226.769 46.9645 227.569 50.8645 230.369C52.5645 231.569 52.6645 232.069 51.6645 233.769C50.9645 234.969 50.3645 237.569 50.2645 239.569C50.1645 241.669 49.7645 244.469 49.3645 245.869C48.8645 247.369 48.7645 245.669 49.0645 241.369C49.4645 234.469 49.4645 234.269 46.0645 230.669C44.2645 228.569 42.3645 227.169 42.0645 227.569C40.5645 228.969 41.4645 231.769 43.9645 233.369C46.4645 234.969 46.5645 235.269 45.8645 241.669C45.2645 248.269 45.2645 248.469 48.5645 251.969C53.6645 257.469 58.1645 259.869 63.5645 259.869C66.2645 259.869 68.5645 259.369 69.0645 258.569C70.3645 256.569 71.1645 266.069 71.2645 284.869C71.3645 294.469 71.7645 303.869 72.2645 305.669C72.8645 307.469 74.7645 310.369 76.5645 312.169C80.5645 316.069 88.9645 320.569 90.0645 319.469C90.9645 318.569 86.3645 314.569 81.8645 312.269C75.2645 308.969 74.9645 307.769 74.2645 281.869C73.8645 268.969 73.1645 257.169 72.5645 255.769C71.9645 254.269 71.1645 249.769 70.7645 245.769C70.4645 241.669 69.6645 237.869 69.1645 237.169C67.8645 235.569 69.0645 233.869 71.3645 233.869C73.0645 233.869 73.1645 232.969 73.0645 222.969C72.9645 216.969 73.1645 211.769 73.4645 211.469C73.7645 211.069 82.2645 210.969 92.3645 211.069C108.764 211.369 110.364 211.469 107.764 212.769C106.164 213.469 104.164 214.469 103.364 214.869C102.564 215.269 101.764 217.269 101.564 219.269L101.264 222.969L96.8645 220.469C94.4645 219.069 91.2645 217.869 89.6645 217.869C88.1645 217.769 85.5645 217.169 83.8645 216.369C80.9645 215.069 81.0645 215.069 87.6645 214.969C92.6645 214.869 94.4645 214.569 94.0645 213.569C93.8645 212.769 91.1645 212.369 85.2645 212.369C77.6645 212.369 76.8645 212.569 76.8645 214.269C76.8645 216.569 84.4645 220.769 88.6645 220.869C90.1645 220.869 93.7645 222.169 96.6645 223.869C99.6645 225.469 102.764 226.869 103.664 226.869C104.564 226.869 105.364 227.269 105.364 227.869C105.364 228.369 107.964 228.869 111.164 228.969L116.864 229.069L112.864 230.069C106.664 231.469 94.2645 229.669 89.3645 226.669C86.1645 224.669 84.6645 227.169 87.7645 229.169C91.8645 231.869 98.3645 233.269 106.864 233.269C114.464 233.269 117.564 232.469 124.564 228.769C127.264 227.369 130.364 227.669 130.364 229.369C130.364 230.469 131.564 230.869 134.964 230.869C139.964 230.869 140.764 228.969 136.264 227.769C134.664 227.269 134.464 227.069 135.664 226.969C136.564 226.869 137.364 226.369 137.364 225.869C137.364 225.269 137.964 224.869 138.664 224.869C139.264 224.869 140.964 224.269 142.364 223.569C143.764 222.769 145.964 221.969 147.264 221.569C149.264 221.069 149.464 221.269 148.764 223.169C148.364 224.369 147.864 232.069 147.664 240.169C147.364 251.069 146.864 254.869 146.064 254.569C145.364 254.269 142.964 253.269 140.664 252.369L136.364 250.669L131.964 255.469L127.564 260.369L118.264 260.969C104.464 261.969 99.3645 263.269 96.0645 266.969C93.7645 269.469 93.2645 270.769 93.5645 274.169C93.7645 277.669 94.2645 278.469 96.1645 278.669C97.6645 278.869 98.3645 278.469 98.3645 277.469C98.3645 276.569 97.9645 275.869 97.3645 275.869C95.4645 275.869 96.3645 271.169 98.7645 268.969C101.864 266.069 106.564 264.869 118.864 263.969C124.364 263.469 129.664 262.869 130.664 262.369C131.964 261.769 132.364 262.169 132.364 263.969C132.464 266.869 134.564 269.569 140.164 273.569L144.364 276.669L134.864 277.069C129.364 277.269 124.864 277.969 124.164 278.669C123.464 279.369 122.164 279.869 121.164 279.869C118.264 279.869 112.864 285.269 113.664 287.369C114.264 288.869 115.264 289.069 119.864 288.669C122.864 288.369 125.064 288.569 124.764 289.069C124.464 289.469 125.364 290.269 126.664 290.769C128.064 291.369 129.864 292.769 130.764 294.069C132.364 296.369 132.564 296.369 162.664 297.069C179.264 297.569 194.664 297.669 196.964 297.369C199.564 296.969 202.064 295.769 203.964 293.969C208.564 289.469 211.464 285.769 210.864 284.869C209.464 282.569 202.364 280.669 192.664 280.069L182.164 279.369L185.264 275.369C186.964 273.169 188.964 270.669 189.764 269.869C192.464 267.069 194.364 262.469 194.364 258.869V255.369L199.564 255.769C202.464 255.869 205.364 256.569 206.064 257.069C206.764 257.569 207.864 260.669 208.464 263.969C209.164 267.769 210.164 269.869 210.964 269.869C212.664 269.869 212.664 268.469 211.264 261.969C209.464 253.569 208.264 252.769 197.464 252.269L188.064 251.869L184.764 255.669C182.964 257.669 181.464 259.669 181.364 260.069C181.264 261.769 185.064 260.669 187.264 258.369C188.564 256.969 190.064 255.869 190.564 255.869C192.464 255.869 190.664 263.969 188.064 266.769C186.764 268.169 183.964 271.869 181.964 274.769C175.464 284.469 172.864 285.069 160.764 280.269C148.064 275.269 143.864 273.069 139.364 268.869C136.064 265.869 135.364 264.469 135.364 261.569C135.364 258.869 135.764 257.869 136.964 257.869C138.064 257.869 138.364 257.369 137.964 256.269C137.464 255.069 137.864 254.869 139.664 255.469C143.464 256.569 147.364 258.869 147.364 259.869C147.364 260.469 148.064 260.869 148.864 260.869C150.164 260.869 150.364 258.469 150.364 245.069C150.364 235.269 150.864 227.769 151.664 225.069L152.964 220.869L154.164 226.569C154.764 229.769 155.864 235.969 156.464 240.369C158.864 258.369 164.064 277.169 166.764 277.669C169.064 278.169 173.364 270.869 174.964 263.669C175.864 259.869 176.664 249.569 177.064 237.569L177.564 217.869H181.464C185.364 217.869 185.364 217.869 185.364 221.969C185.364 225.169 185.964 226.569 188.464 228.769C194.564 234.369 207.564 238.869 217.864 238.869C223.464 238.869 230.264 233.869 230.364 229.569C230.364 228.669 230.864 227.869 231.464 227.869C232.064 227.869 232.364 226.869 232.164 225.669C231.664 222.169 230.264 222.869 227.764 227.869C223.664 236.069 220.664 237.069 208.264 234.469C200.364 232.869 195.664 230.769 191.464 226.969C186.264 222.269 188.064 217.769 193.564 221.869C196.364 223.969 197.364 224.069 210.064 223.669C223.364 223.369 223.564 223.369 225.864 220.569C227.164 219.069 229.164 217.869 230.264 217.869C231.364 217.869 232.564 217.369 232.864 216.769C233.764 215.369 237.064 218.369 239.064 222.369C241.064 226.369 244.364 229.869 246.064 229.869C247.264 229.869 247.464 227.469 247.264 216.869C247.164 209.669 247.364 203.569 247.664 203.169C248.064 202.869 248.364 203.969 248.364 205.669C248.364 209.169 250.564 210.869 254.764 210.869C257.364 210.869 258.264 209.469 256.364 208.369C254.364 207.169 251.464 200.269 252.364 198.869C252.864 198.069 253.464 197.669 253.664 197.869C254.464 198.869 264.964 218.469 266.164 221.069C267.164 223.569 270.364 225.069 270.364 223.069C270.364 220.869 265.764 210.769 262.864 206.869C261.064 204.369 258.664 200.369 257.464 197.969L255.264 193.669L259.264 195.969C261.464 197.169 263.564 197.969 263.964 197.669C264.564 196.969 262.464 189.969 261.164 188.469C260.764 187.869 260.364 186.869 260.364 186.069C260.364 184.869 260.664 184.869 261.864 185.869C262.664 186.569 263.364 187.669 263.364 188.369C263.364 190.069 273.264 202.269 274.964 202.669C277.564 203.269 276.364 200.569 270.564 192.469C267.364 187.969 264.364 183.469 263.864 182.369C263.464 181.269 263.164 176.269 263.264 171.369C263.464 162.669 263.364 162.169 259.964 156.469C257.964 153.269 256.364 150.169 256.364 149.669C256.364 149.169 255.264 147.269 253.864 145.469C252.464 143.669 251.364 141.369 251.364 140.369C251.364 138.969 252.364 139.469 255.664 142.469C262.064 148.469 266.864 151.869 268.664 151.869C271.164 151.869 270.764 150.369 266.864 146.269C263.664 142.969 261.764 139.869 264.564 142.669C265.964 144.069 268.364 144.269 268.364 142.969C268.364 142.469 264.564 138.269 259.864 133.769C255.264 129.169 251.564 125.269 251.764 125.069C251.964 124.869 253.664 125.669 255.464 126.769C258.964 128.969 262.364 129.569 262.364 127.969C262.364 127.569 259.764 125.269 256.564 123.069C253.364 120.769 250.164 118.269 249.364 117.469C248.264 116.069 248.464 115.869 250.764 115.869C254.664 115.869 253.964 113.769 248.664 108.769C245.564 105.969 241.164 103.269 236.364 101.369L228.864 98.3691L237.664 98.0691C243.464 97.8691 246.364 97.3691 246.164 96.6691C245.764 95.4691 235.064 91.9691 231.364 91.8691C226.364 91.6691 232.564 90.1691 243.664 88.8691C252.864 87.7691 254.364 87.3691 254.364 85.7691C254.364 84.5691 252.764 83.1691 249.764 81.8691C244.664 79.4691 222.364 73.4691 212.864 71.7691C203.864 70.2691 203.764 70.3691 217.364 66.8691C229.364 63.8691 235.464 61.6691 235.064 60.3691C234.564 59.1691 226.764 59.4691 212.864 61.2691C207.364 61.9691 202.764 62.4691 202.564 62.3691C202.464 62.2691 201.864 58.3691 201.364 53.7691C200.464 45.6691 200.464 45.2691 202.664 43.6691C206.164 40.9691 203.764 39.9691 196.364 40.9691C185.964 42.3691 174.564 45.9691 165.364 50.6691L156.864 55.0691L159.964 51.6691C161.664 49.8691 164.064 46.7691 165.364 44.8691C166.664 42.9691 169.664 39.2691 171.964 36.7691C179.264 28.7691 181.464 21.7691 176.164 23.3691C174.464 23.8691 175.364 22.5691 179.264 18.5691C183.864 13.7691 184.464 12.7691 183.364 11.4691C181.364 8.96912 179.164 9.56912 172.864 13.9691ZM168.164 24.9691C131.664 60.6691 130.264 61.8691 126.764 61.8691C122.564 61.8691 175.264 13.1691 179.664 12.8691C180.164 12.8691 174.964 18.2691 168.164 24.9691ZM173.864 29.5691C172.864 31.1691 170.764 33.5691 169.264 35.0691C167.764 36.4691 164.764 40.3691 162.564 43.5691C156.664 52.1691 154.764 53.6691 148.664 54.0691L143.464 54.3691L148.664 48.9691C155.064 42.4691 173.664 26.8691 175.164 26.8691C175.364 26.8691 174.764 28.0691 173.864 29.5691ZM194.164 60.0691C194.364 61.1691 193.364 62.3691 191.264 63.4691C188.464 64.8691 186.164 64.9691 174.664 64.3691C167.364 63.9691 161.364 63.2691 161.364 62.8691C161.364 62.4691 162.864 61.1691 164.664 59.9691C167.564 58.0691 169.164 57.8691 180.864 58.1691C192.164 58.3691 193.864 58.5691 194.164 60.0691ZM117.364 64.3691C117.364 67.4691 96.1645 92.7691 90.8645 95.9691C89.2645 96.9691 84.9645 101.369 81.2645 105.569L74.7645 113.369L69.2645 113.069C62.7645 112.769 60.0645 114.469 57.9645 120.369L56.4645 124.369V120.369C56.3645 118.069 57.4645 112.969 58.8645 108.869C60.1645 104.769 61.3645 100.569 61.3645 99.6691C61.3645 97.3691 68.2645 91.8691 71.0645 91.8691C73.7645 91.8691 73.8645 92.5691 71.8645 95.2691C71.0645 96.3691 70.3645 97.8691 70.3645 98.5691C70.3645 101.569 73.4645 99.4691 79.0645 92.5691C82.3645 88.5691 87.3645 83.4691 90.2645 81.2691C93.5645 78.7691 95.1645 76.7691 94.9645 75.6691C94.5645 73.7691 99.5645 68.5691 105.064 65.2691C109.664 62.5691 117.364 62.0691 117.364 64.3691ZM195.364 82.8691C195.364 87.9691 195.064 88.8691 193.564 88.8691C192.564 88.8691 190.664 89.6691 189.364 90.5691C187.964 91.5691 186.664 92.2691 186.364 92.0691C184.764 91.3691 186.264 94.4691 187.864 95.3691C193.664 98.3691 198.664 103.869 195.564 103.869C195.164 103.869 189.264 98.2691 182.364 91.3691L169.864 78.8691L177.364 78.7691C181.464 78.6691 185.964 78.2691 187.364 77.8691C188.764 77.4691 191.064 77.0691 192.664 76.9691C195.364 76.8691 195.364 76.9691 195.364 82.8691ZM152.164 84.5691C152.764 87.6691 153.164 90.3691 152.964 90.6691C152.764 90.8691 150.864 90.1691 148.664 89.0691C146.564 87.9691 142.164 86.3691 138.864 85.3691C135.564 84.4691 131.564 82.9691 129.964 82.1691C125.464 79.8691 128.364 78.8691 140.364 78.8691H150.964L152.164 84.5691ZM134.464 90.1691L142.064 96.3691L132.964 96.6691C127.564 96.8691 123.764 96.5691 123.564 95.9691C122.864 93.7691 118.764 88.3691 117.864 88.3691C117.264 88.3691 116.764 90.4691 116.564 92.9691L116.264 97.6691L111.564 98.4691C108.964 98.9691 105.264 99.3691 103.364 99.4691C101.464 99.4691 99.0645 99.8691 98.1645 100.269C95.3645 101.569 97.1645 97.4691 101.564 92.3691C104.664 88.8691 106.264 87.8691 108.664 87.7691C110.464 87.7691 114.564 86.6691 117.864 85.3691C121.164 84.0691 124.564 83.2691 125.264 83.4691C126.064 83.7691 130.164 86.7691 134.464 90.1691ZM225.964 102.869C228.564 105.569 231.464 109.169 232.464 110.769C233.364 112.369 234.664 113.969 235.264 114.269C237.064 115.369 236.564 116.869 234.664 116.269C233.064 115.769 221.064 110.769 210.164 106.169C206.864 104.769 206.364 104.169 206.364 101.169V97.8691H213.764H221.264L225.964 102.869ZM157.364 111.569C164.564 119.169 169.564 125.369 171.464 129.069C173.264 132.569 173.964 134.869 173.164 134.869C172.564 134.869 168.764 133.069 164.764 130.869C160.764 128.669 156.364 126.869 154.964 126.869C153.564 126.869 150.864 126.169 149.064 125.269C146.464 123.969 145.364 122.569 144.264 119.169C142.764 114.269 141.064 113.369 140.564 117.269C140.364 118.569 139.664 120.269 138.864 120.869C137.864 121.769 136.464 119.869 131.964 111.469C128.864 105.769 126.364 100.769 126.364 100.469C126.364 100.169 130.864 99.8691 136.264 99.8691H146.164L157.364 111.569ZM116.764 119.069C117.064 129.169 117.564 139.369 117.964 141.869C118.364 145.669 117.764 144.769 113.864 135.369C111.364 129.269 108.664 122.569 107.964 120.369C105.464 113.069 103.364 108.769 102.264 109.369C101.764 109.769 101.564 111.569 101.964 113.669L102.564 117.369L99.8645 113.369C98.3645 111.169 96.3645 108.869 95.4645 108.169C94.0645 107.169 94.3645 106.769 97.8645 105.269C102.364 103.369 110.764 101.069 113.964 100.969C116.064 100.869 116.164 101.369 116.764 119.069ZM127.364 109.069C134.564 122.769 140.564 133.169 143.064 136.169C144.364 137.769 145.364 139.769 145.364 140.669C145.364 141.669 144.164 140.569 142.564 138.169C137.264 129.869 134.864 131.269 135.664 142.269C136.264 151.169 138.264 156.569 144.464 166.069C147.864 171.369 154.464 177.769 156.664 177.869C157.764 177.869 157.464 167.969 156.264 165.669C153.864 161.169 156.464 163.169 160.964 169.269C163.664 172.869 166.464 175.869 167.164 175.869C168.864 175.869 168.664 174.469 166.364 170.669C163.964 166.669 163.864 165.869 165.864 165.869C167.764 165.869 167.764 164.069 165.464 154.569C164.464 150.369 163.764 146.869 163.964 146.869C164.164 146.869 166.264 148.169 168.664 149.869C171.164 151.469 173.564 152.869 174.064 152.869C175.464 152.869 183.464 164.569 187.364 172.369C189.364 176.369 191.664 179.469 192.664 179.669C195.664 180.269 194.664 173.869 190.364 164.569C188.064 159.769 185.664 154.069 184.864 151.769L183.364 147.669L185.964 149.369C187.364 150.269 189.064 150.769 189.864 150.569C191.564 149.869 198.964 165.769 204.864 182.869C207.364 190.269 210.064 197.669 210.764 199.369C211.564 200.969 212.364 203.269 212.564 204.269C212.864 206.369 215.864 208.669 216.864 207.669C217.264 207.269 215.664 189.569 213.464 168.269C211.164 146.969 209.564 129.369 209.764 129.069C210.064 128.869 212.264 130.369 214.764 132.369C219.264 136.069 220.364 138.169 218.364 139.369C216.464 140.569 217.364 153.269 221.364 181.869C221.864 185.469 222.864 191.469 223.764 195.369C224.564 199.169 225.464 205.169 225.864 208.569L226.564 214.869H201.964H177.364V205.969C177.364 193.369 175.864 189.869 170.264 189.869C168.764 189.869 167.364 189.169 166.964 188.369C166.564 187.069 165.464 187.469 161.264 190.469C156.464 193.869 150.164 196.769 135.864 202.269C122.464 207.469 119.764 207.869 98.4645 207.869H78.3645L78.8645 205.569C79.1645 204.369 80.0645 197.269 80.8645 189.869C82.0645 179.569 87.2645 146.069 88.5645 140.169C88.6645 139.769 88.9645 143.569 89.2645 148.769C90.0645 161.269 91.7645 161.769 93.3645 150.169C93.9645 145.369 94.8645 139.669 95.2645 137.469L95.8645 133.669L103.264 141.969C112.564 152.469 115.264 153.669 111.964 145.769C111.164 143.869 110.264 140.369 109.964 137.869C109.364 134.169 109.464 133.669 110.464 135.269C113.164 139.669 118.364 156.669 118.364 161.169C118.364 165.169 118.764 166.169 120.364 166.569C121.764 166.969 122.464 168.269 122.864 171.769C123.664 177.269 125.264 181.969 126.864 183.369C127.464 183.869 129.164 188.269 130.464 193.069C131.864 198.169 133.364 201.869 134.164 201.869C134.764 201.869 135.364 201.569 135.364 201.069C135.364 197.169 131.764 170.669 129.864 160.369C128.564 153.169 126.764 142.169 125.864 135.869C124.964 129.569 123.164 120.469 121.764 115.669C118.764 104.969 118.664 100.869 121.164 100.869C122.464 100.869 124.364 103.469 127.364 109.069ZM173.164 105.369C174.364 105.669 175.364 106.569 175.364 107.169C175.364 109.369 188.264 134.869 189.364 134.869C189.864 134.869 190.364 136.769 190.364 139.069V143.369L188.164 139.869C177.164 121.969 167.364 105.469 167.364 104.669C167.364 104.169 168.164 103.969 169.164 104.269C170.064 104.469 171.864 104.969 173.164 105.369ZM189.064 109.569C192.564 110.669 194.264 111.669 193.964 112.569C193.664 113.269 194.364 114.469 195.564 115.269C197.264 116.469 197.764 118.569 198.864 129.069C199.664 135.869 200.564 143.869 200.964 146.869C201.864 154.369 200.964 152.969 198.364 142.869C196.864 137.269 193.764 129.969 189.264 121.569C185.464 114.469 182.364 108.569 182.364 108.269C182.364 107.569 183.464 107.769 189.064 109.569ZM43.9645 137.469C30.6645 169.569 17.5645 198.169 17.3645 195.169C17.3645 194.469 22.2645 181.669 28.2645 166.669C38.4645 141.069 50.2645 116.169 51.0645 118.469C51.2645 119.069 48.0645 127.569 43.9645 137.469ZM206.364 128.069C206.364 129.969 210.164 166.869 210.864 171.869L211.364 175.369L208.864 170.669C206.864 166.969 205.864 162.169 203.864 146.469C202.464 135.669 201.364 125.369 201.364 123.569L201.464 120.369L203.864 123.369C205.264 124.969 206.364 127.069 206.364 128.069ZM147.364 151.469C147.364 152.069 148.964 156.169 150.864 160.569C155.564 171.369 155.464 174.869 150.664 169.569C144.164 162.369 138.364 149.169 138.364 141.569V137.469L142.864 143.969C145.364 147.469 147.364 150.869 147.364 151.469ZM53.1645 208.669L53.5645 228.069L51.3645 226.869C49.5645 225.869 49.2645 225.069 49.6645 222.369C50.2645 218.469 49.6645 217.369 47.5645 219.169C46.2645 220.169 46.1645 219.969 46.6645 217.869C46.9645 216.469 47.5645 212.469 47.8645 208.869C48.1645 205.269 48.9645 198.569 49.5645 193.969C51.2645 180.469 52.7645 186.269 53.1645 208.669ZM173.364 194.769C173.864 195.869 174.364 200.869 174.364 205.869V214.869H159.164C145.264 214.769 135.164 213.969 122.364 211.969C117.864 211.269 117.864 211.269 125.364 210.469C129.464 209.969 133.464 209.269 134.364 208.769C135.164 208.269 138.364 206.769 141.364 205.369C144.364 203.969 148.864 201.569 151.364 199.969C153.864 198.369 156.564 196.969 157.364 196.969C158.164 196.869 160.264 195.969 161.864 194.969C165.964 192.369 171.964 192.269 173.364 194.769ZM174.064 237.069C173.464 255.769 172.064 265.769 169.364 270.869C168.164 273.069 168.064 273.169 166.764 271.469C165.064 269.069 160.664 250.469 159.364 239.369C158.764 234.369 157.864 228.769 157.364 226.869C156.864 224.969 156.164 222.169 155.864 220.569L155.364 217.869H164.964H174.564L174.064 237.069ZM59.0645 244.869C61.1645 244.869 61.3645 244.369 61.3645 240.469V235.969L64.2645 236.969C66.9645 237.869 67.1645 238.369 67.6645 244.669C67.9645 248.369 67.7645 251.769 67.2645 252.269C66.7645 252.869 66.3645 254.069 66.3645 255.069C66.3645 257.469 61.3645 257.469 57.0645 255.069L53.8645 253.369L58.1645 253.069C64.0645 252.669 63.1645 250.469 56.9645 250.069L52.1645 249.769L52.7645 246.069C53.0645 244.069 53.3645 240.769 53.4645 238.869L53.5645 235.369L55.1645 240.069C56.4645 243.969 57.1645 244.869 59.0645 244.869ZM156.664 281.969C161.164 283.769 165.464 285.569 166.064 286.069C167.664 287.369 175.564 286.269 177.964 284.369C179.264 283.369 182.564 282.969 188.864 282.969H197.864L193.364 285.069C189.464 286.969 187.064 287.269 176.364 287.269C169.464 287.269 158.064 286.669 150.864 285.969C143.764 285.269 133.464 284.869 128.064 285.169C119.764 285.569 118.464 285.469 119.464 284.269C120.064 283.469 121.364 282.869 122.264 282.869C123.164 282.869 124.464 282.369 125.164 281.669C125.864 280.969 130.964 280.169 137.164 279.869C143.064 279.469 147.964 279.069 148.164 279.069C148.264 278.969 152.164 280.269 156.664 281.969ZM204.364 288.869C202.964 291.469 199.664 293.569 195.864 294.269C194.264 294.569 179.664 294.469 163.664 294.069L134.364 293.369L131.664 290.469L129.064 287.569L143.464 288.269C151.364 288.669 159.864 289.469 162.164 290.069C168.464 291.569 190.264 290.569 193.964 288.569C195.564 287.669 198.764 286.969 201.164 286.869C205.164 286.869 205.364 286.969 204.364 288.869Z" fill="#028090"/>
<path d="M238.965 227.969C238.665 228.769 238.265 233.169 238.065 237.869C237.765 245.769 237.465 246.869 233.565 253.369L229.365 260.369V270.869C229.265 276.669 228.865 285.769 228.465 291.169L227.665 301.069L222.365 305.969C219.465 308.669 216.765 310.869 216.365 310.869C216.065 310.869 214.265 312.869 212.465 315.269C210.565 317.669 208.265 319.969 207.265 320.169C204.565 320.869 204.865 322.869 207.665 322.869C209.165 322.869 211.765 321.069 214.665 318.069C221.465 311.169 227.965 305.169 229.265 304.769C230.665 304.269 232.365 286.169 232.365 271.869C232.365 263.169 232.665 261.869 235.465 256.369C237.265 253.069 239.165 250.069 239.765 249.669C241.165 248.669 241.965 229.069 240.565 227.669C239.765 226.869 239.265 226.969 238.965 227.969Z" fill="#028090"/>
<path d="M159.064 302.469C157.264 304.269 160.664 304.869 172.664 304.869H185.864L190.464 309.069C197.164 315.369 198.664 319.169 198.164 329.969C197.864 338.669 197.764 338.969 194.264 342.469C192.164 344.569 189.064 346.369 186.764 346.869C180.364 348.369 158.664 348.069 155.564 346.469C154.064 345.669 149.264 344.769 144.864 344.369C134.864 343.469 134.964 343.469 134.564 345.169C134.364 346.269 136.264 346.769 142.964 347.269C147.764 347.669 153.064 348.669 154.664 349.569C157.064 350.769 160.664 350.969 173.264 350.669C189.964 350.269 191.464 349.869 196.564 344.669C200.664 340.469 201.364 337.969 201.364 328.069C201.364 317.469 199.664 313.269 192.764 306.669L187.864 301.869H173.764C166.064 301.869 159.364 302.169 159.064 302.469Z" fill="#028090"/>
</g>
<defs>
<clipPath id="clip0">
<rect width="276" height="359" fill="white"/>
</clipPath>
</defs>
</svg>
