<svg width="256" height="236" viewBox="0 0 256 236" fill="none" xmlns="http://www.w3.org/2000/svg">
<path d="M128 235.818L175.137 90.7467H80.8633L128 235.818Z" fill="#E24329"/>
<path d="M128 235.818L80.8632 90.7465H14.8022L128 235.818Z" fill="#FC6D26"/>
<path d="M14.8024 90.7468L0.478365 134.833C-0.828143 138.853 0.602794 143.258 4.02338 145.743L128 235.818L14.8024 90.7468Z" fill="#FCA326"/>
<path d="M14.8022 90.7469H80.8632L52.4726 3.37194C51.0124 -1.12459 44.6518 -1.12337 43.1916 3.37194L14.8022 90.7469Z" fill="#E24329"/>
<path d="M128 235.818L175.137 90.7465H241.198L128 235.818Z" fill="#FC6D26"/>
<path d="M241.198 90.7468L255.522 134.833C256.828 138.853 255.397 143.258 251.977 145.743L128 235.818L241.198 90.7468Z" fill="#FCA326"/>
<path d="M241.198 90.7469H175.137L203.527 3.37194C204.988 -1.12459 211.348 -1.12337 212.808 3.37194L241.198 90.7469Z" fill="#E24329"/>
</svg>
