<svg width="181" height="267" viewBox="0 0 181 267" fill="none" xmlns="http://www.w3.org/2000/svg">
<path d="M82.6734 0.822629C82.1064 1.27621 80.8591 1.67308 80.0087 1.67308C79.1015 1.67308 78.5345 1.89987 78.7613 2.24006C78.9881 2.58024 78.3077 2.80703 77.1171 2.80703C75.1327 2.80703 73.5452 3.88427 75.4729 3.99767C76.3233 3.99767 76.3233 4.11106 75.643 4.39454C73.9988 5.13161 72.1845 6.60573 72.3545 7.116C72.4112 7.39949 71.7876 8.81692 70.8804 10.291C67.9322 15.2804 67.9322 22.4809 70.8237 31.6091C72.638 37.4489 72.4112 39.3766 69.8032 39.8869C68.7826 40.1137 65.4942 41.6445 62.4326 43.2887C57.0463 46.1803 56.8762 46.3504 58.0102 47.1441C59.2575 47.9946 59.2575 47.9946 57.67 48.6183C55.0619 49.6388 51.7735 50.3192 47.5779 50.7161C45.4234 50.8861 42.5319 51.5665 41.2278 52.1902C37.9394 53.7777 30.909 60.468 26.7134 65.9676C21.1571 73.3382 18.3789 76.3431 14.807 78.8945C11.0083 81.6727 9.64758 83.8838 8.74042 88.9299C8.17345 92.1049 8.23015 92.6719 9.1373 94.146C10.6681 96.5273 13.7865 98.6251 15.8276 98.6251C16.7914 98.6251 18.549 99.3055 19.7964 100.156C21.4973 101.347 22.7446 101.743 24.7857 101.743C27.3938 101.743 27.4505 101.8 27.4505 103.444C27.4505 105.656 30.7389 112.459 33.9706 117.108L36.4086 120.624L31.8161 123.402C29.2648 124.933 26.4299 126.577 25.5228 127.03C24.6156 127.484 21.3839 130.092 18.3789 132.927C15.374 135.705 10.6114 139.901 7.77657 142.225C2.33365 146.591 1.82338 147.385 0.689436 152.487C-0.444505 157.76 -0.217717 159.971 1.65329 162.409C2.61714 163.543 3.69438 165.017 4.14796 165.584C5.96226 168.079 19.9664 205.329 24.9558 220.921C26.4299 225.513 27.904 229.652 28.1875 229.992C29.038 231.183 31.3626 230.843 36.522 228.802L41.3412 226.931L41.9649 228.688C43.1555 232.033 44.0627 243.883 43.439 246.888C42.4752 251.367 42.0216 258.171 42.4752 261.062C43.2689 266.505 47.0109 267.752 55.0052 265.258C61.1852 263.33 62.8861 262.253 64.3036 259.361C65.8344 256.186 65.6643 253.748 63.5098 249.213C61.6955 245.414 61.6955 244.45 63.3397 243.826C64.5303 243.373 66.5714 239.064 66.5714 236.966C66.5714 235.492 63.7366 229.936 62.1491 228.291L60.6749 226.76H62.9428C64.1902 226.76 65.4942 226.477 65.8911 226.08C66.288 225.683 66.5714 223.812 66.5714 221.658C66.5714 219.617 66.7982 217.632 67.0817 217.179C67.5353 216.498 69.8032 216.442 81.0859 216.782C88.5132 217.009 94.6932 217.235 94.8066 217.349C94.8633 217.462 96.0539 223.359 97.358 230.502C100.023 244.904 99.6825 244.223 104.332 243.486C106.033 243.259 106.883 242.806 107.11 242.069C107.393 241.105 106.826 234.982 105.863 229.709L105.579 227.894H108.244H110.965L110.568 225.23C110.398 223.699 107.167 206.973 103.481 187.98L96.7343 153.508L97.7548 151.694C98.3218 150.73 99.3424 148.575 100.023 146.874C100.646 145.173 101.78 143.359 102.517 142.792C103.198 142.282 104.275 140.694 104.842 139.334C105.409 137.973 107.904 133.494 110.342 129.412C112.78 125.273 114.764 121.644 114.764 121.304C114.764 121.02 115.274 120.51 115.955 120.17C116.635 119.773 117.032 119.036 116.975 118.299C116.918 117.619 117.032 116.371 117.259 115.578C117.656 114.273 118.109 113.99 120.604 113.707C123.439 113.31 128.541 110.985 130.979 108.944C131.66 108.377 132.737 106.733 133.361 105.259C134.041 103.785 134.948 102.594 135.402 102.594C136.933 102.594 139.654 99.759 140.051 97.7179C140.221 96.6407 140.618 95.6201 140.901 95.4501C141.185 95.28 141.412 93.7491 141.412 91.9915C141.412 89.2134 141.752 88.3629 144.587 83.7705C147.081 79.745 147.875 77.874 148.272 75.1525C148.782 71.3538 147.932 59.3907 146.968 57.6331C146.684 57.0661 146.514 56.4992 146.628 56.4425C146.741 56.3291 149.122 55.025 151.901 53.4375C156.493 50.8295 157.457 50.546 161.539 50.2625C169.703 49.6388 180.646 45.7267 180.986 43.232C181.213 41.7012 178.151 38.186 176.224 37.7891C172.595 37.1088 158.364 41.1343 154.792 43.8557C151.957 46.0102 140.845 50.9995 138.86 50.9995C137.159 50.9995 135.175 52.417 135.175 53.6076C135.175 53.8911 130.356 56.5559 124.402 59.5041L113.63 64.8336L111.532 62.8492C110.342 61.7153 107.677 59.6175 105.579 58.1434C101.157 55.025 97.8682 50.2625 99.1723 48.7317C99.5691 48.2781 100.193 46.804 100.533 45.4432C100.873 44.1392 101.44 42.0414 101.724 40.7941C102.121 39.4333 102.687 38.5262 103.198 38.5262C103.651 38.5262 104.275 37.9025 104.615 37.1655C105.182 36.0315 105.069 35.4078 104.048 33.8203C102.744 31.6658 102.517 28.8877 103.538 27.0167C103.878 26.3363 104.218 23.8983 104.275 21.5738C104.275 17.4916 104.332 17.3782 105.692 17.2648C106.486 17.2081 107.28 17.4349 107.507 17.7751C108.13 18.7389 108.697 17.7184 108.3 16.1875C107.734 13.8063 104.388 10.0643 100.703 7.56958C96.9611 5.07491 86.2453 0.765932 85.2815 1.3896C84.9413 1.55969 84.8846 1.3329 85.0547 0.879326C85.5083 -0.254616 84.1475 -0.311313 82.6734 0.822629ZM135.742 66.4778C135.742 68.3488 136.139 70.2765 136.876 71.694C137.499 72.9413 138.01 74.1886 138.01 74.5288C138.01 75.4927 132.227 80.8789 130.696 81.3325C129.959 81.5593 128.258 82.7499 126.954 83.9405L124.516 86.1517L124.176 84.3374C124.006 83.3169 122.815 80.2552 121.624 77.4771L119.413 72.4877L120.604 71.7507C129.052 66.3645 133.928 63.4729 134.778 63.4729C135.572 63.4729 135.742 63.9832 135.742 66.4778ZM53.2476 176.98C51.8302 192.005 50.5829 204.592 50.5262 204.875C49.9592 206.746 41.7948 187.243 39.6403 178.908C38.1095 173.068 36.4653 168.929 34.8211 166.832C33.0635 164.564 33.347 162.92 35.5581 162.183C37.7126 161.445 46.1605 156.116 51.6034 151.92C53.7012 150.39 55.5155 149.199 55.6289 149.312C55.799 149.426 54.7218 161.899 53.2476 176.98ZM76.7202 153.224C76.3233 153.905 74.7925 155.832 73.2617 157.477C70.03 161.049 69.6331 162.353 70.3701 166.605C70.6536 168.363 70.8237 170.8 70.7103 172.105C70.4835 174.146 70.2568 174.372 69.2362 174.202C67.9889 173.976 67.9889 173.862 68.3291 164.791C68.5558 159.745 68.7259 154.812 68.7826 153.791L68.8393 151.977L72.6947 151.807C77.3439 151.58 77.514 151.694 76.7202 153.224ZM73.6019 187.81C73.1483 193.196 73.9988 195.861 76.6635 197.618C78.818 199.036 87.0958 199.433 89.9873 198.242C91.9717 197.391 92.0851 197.391 92.0851 198.355C92.0851 198.922 92.2552 200.226 92.4253 201.19L92.8222 203.004L83.8074 202.891C78.818 202.778 73.0916 202.608 70.9938 202.494L67.1384 202.267V194.84C67.1384 190.701 67.3085 186.392 67.4786 185.202L67.8755 183.104H70.8804H73.9421L73.6019 187.81ZM93.5026 208.447C93.6726 209.638 93.9561 211.055 94.0128 211.566C94.2396 212.416 93.3892 212.473 84.2042 212.246C78.7046 212.076 72.638 211.849 70.7103 211.679L67.1384 211.339V208.844V206.35H80.1787H93.1624L93.5026 208.447Z" fill="#028090"/>
</svg>
