<svg width="256" height="256" viewBox="0 0 256 256" fill="none" xmlns="http://www.w3.org/2000/svg">
<path fill-rule="evenodd" clip-rule="evenodd" d="M28.4444 256H227.556C243.265 256 256 243.265 256 227.556V28.4444C256 12.735 243.265 0 227.556 0H28.4444C12.735 0 0 12.735 0 28.4444V227.556C0 243.265 12.735 256 28.4444 256Z" fill="black"/>
<path fill-rule="evenodd" clip-rule="evenodd" d="M220.445 220.444H182.456V155.741C182.456 138.001 175.715 128.087 161.674 128.087C146.399 128.087 138.418 138.404 138.418 155.741V220.444H101.808V97.1852H138.418V113.788C138.418 113.788 149.426 93.4194 175.583 93.4194C201.727 93.4194 220.445 109.385 220.445 142.404V220.444ZM58.1311 81.0454C45.6608 81.0454 35.5557 70.861 35.5557 58.3005C35.5557 45.7399 45.6608 35.5555 58.1311 35.5555C70.6015 35.5555 80.7006 45.7399 80.7006 58.3005C80.7006 70.861 70.6015 81.0454 58.1311 81.0454ZM39.227 220.444H77.4024V97.1852H39.227V220.444Z" fill="white"/>
</svg>
