<svg width="320" height="240" viewBox="0 0 320 240" fill="none" xmlns="http://www.w3.org/2000/svg">
<g clip-path="url(#clip0)">
<path d="M317.351 25.85C314.481 18.262 309.371 11.7259 302.701 7.10909C296.03 2.49226 288.113 0.012903 280.001 0L40.0006 0C31.75 0.0219704 23.708 2.59472 16.9767 7.3657C10.2455 12.1367 5.15417 18.8725 2.40055 26.65C0.789171 30.9153 -0.0243497 35.4405 0.00055496 40V200C0.0067254 207.963 2.38921 215.742 6.84296 222.343C11.2967 228.943 17.6191 234.064 25.0006 237.05C29.7589 239.007 34.8555 240.009 40.0006 240H280.001C284.89 240.028 289.735 239.076 294.251 237.2C303.071 233.961 310.435 227.662 315.001 219.45C318.294 213.497 320.015 206.803 320.001 200V40C319.996 35.1604 319.098 30.3633 317.351 25.85V25.85ZM26.6506 40C26.6637 36.4634 28.0745 33.0754 30.5752 30.5747C33.076 28.0739 36.464 26.6632 40.0006 26.65H280.001C283.537 26.6632 286.925 28.0739 289.426 30.5747C291.927 33.0754 293.337 36.4634 293.351 40V42.55L187.051 122.55L165.001 139.6L160.001 143.35L155.001 139.45L132.701 122.8L26.6506 43.05V40ZM26.6506 200V76.4L110.551 139.45L26.9506 202.25C26.7655 201.514 26.6648 200.759 26.6506 200V200ZM56.6506 213.35L132.801 156.15L152.001 170.65C154.3 172.402 157.11 173.35 160.001 173.35C162.891 173.35 165.701 172.402 168.001 170.65L187.051 156.25L262.651 213.35H56.6506ZM293.351 200C293.351 200.948 293.216 201.89 292.951 202.8L209.201 139.45L293.351 75.85V200Z" fill="#3E49FF"/>
</g>
<defs>
<clipPath id="clip0">
<rect width="320" height="240" fill="white"/>
</clipPath>
</defs>
</svg>
