<svg width="392" height="256" viewBox="0 0 392 256" fill="none" xmlns="http://www.w3.org/2000/svg">
<path d="M123.615 195.324H178.208V207.918H123.615V218.299H295.314V207.918H231.662V195.324H302.456V166.568H123.615V195.324Z" fill="#028090"/>
<path d="M76.0691 22.302H336.351V126.341H358.653V0H53.7671V69.6718H76.0691V22.302Z" fill="#028090"/>
<path d="M0 251.319H116.424V76.67H0V251.319ZM60.6693 242.548C57.5749 242.548 55.0577 240.047 55.0577 236.945C55.0577 233.85 57.5749 231.341 60.6693 231.341C63.7717 231.341 66.2728 233.842 66.2728 236.945C66.2728 240.047 63.7717 242.548 60.6693 242.548ZM16.8348 93.5047H99.6056L99.5976 222.347H16.8348V93.5047Z" fill="#028090"/>
<path d="M310.36 133.05V256H391.463V133.05H310.36ZM352.559 138.133C353.529 138.133 354.323 138.942 354.323 139.904C354.323 140.874 353.529 141.684 352.559 141.684C351.573 141.684 350.771 140.874 350.771 139.904C350.771 138.934 351.565 138.133 352.559 138.133ZM342.025 144.033H363.053V145.732H342.025V144.033ZM351.854 250.693C349.521 250.693 347.653 248.801 347.653 246.484C347.653 244.16 349.521 242.284 351.854 242.284C354.17 242.284 356.062 244.16 356.062 246.484C356.062 248.793 354.17 250.693 351.854 250.693ZM379.735 236.215C360.752 236.319 331.508 236.391 322.104 236.311V151.777L379.735 151.769V236.215Z" fill="#028090"/>
</svg>
