<svg width="256" height="256" viewBox="0 0 256 256" fill="none" xmlns="http://www.w3.org/2000/svg">
<path d="M168.987 90.7597C142.483 88.6823 113.516 88.6823 87.0241 90.7597C78.7359 91.7709 72.4884 97.3474 70.8889 105.553C69.0107 119.886 69.0107 136.117 70.8828 150.447C72.4853 158.653 78.7359 164.226 87.0241 165.24C113.516 167.321 142.483 167.318 168.987 165.24C177.263 164.22 183.504 158.662 185.116 150.447C186.982 136.107 186.982 119.889 185.116 105.553C183.504 97.3413 177.263 91.7831 168.987 90.7597ZM113.954 143.783V112.22L142.045 128L113.954 143.783Z" fill="#028090"/>
<path d="M128 0C57.42 0 0 57.42 0 127.997C0 198.577 57.42 256 128 256C198.58 256 256 198.577 256 127.997C256 57.42 198.58 0 128 0ZM128 238.412C67.1146 238.412 17.5876 188.879 17.5876 127.997C17.5876 67.1146 67.1146 17.5876 128 17.5876C188.879 17.5876 238.412 67.1146 238.412 127.997C238.412 188.879 188.879 238.412 128 238.412Z" fill="#028090"/>
</svg>
