<svg width="256" height="256" viewBox="0 0 256 256" fill="none" xmlns="http://www.w3.org/2000/svg">
<path fill-rule="evenodd" clip-rule="evenodd" d="M76.607 108.044C87.0994 82.7691 110.847 70.1886 128.778 70.1632C128.461 70.2012 130.64 70.482 243.091 70.482C203.491 -5.68698 128.879 0.100726 128.879 0.100726C53.4172 3.07135 23.8664 58.207 23.8664 58.207L75.9226 109.363L76.607 108.044ZM74.3769 145.013C59.3733 118.976 31.6216 71.7015 23.8664 58.207C-26.8216 130.085 18.9874 193.063 18.9874 193.063C57.9665 254.912 116.473 255.888 120.262 255.888L137.154 185.788C108.642 190.003 81.9548 172.167 74.3769 145.013ZM243.091 70.482L173.383 92.2632C184.547 106.837 194.063 140.758 171.596 166.782C156.833 192.4 128.195 242.14 120.262 255.888C204.962 259.113 239.531 191.044 239.531 191.044C273.289 126.694 245.005 74.4047 243.091 70.482ZM175.905 129.769C175.905 155.794 154.844 176.926 128.828 176.926C102.851 176.926 81.7519 155.794 81.7519 129.769C81.7519 103.745 102.813 82.607 128.828 82.607C154.806 82.607 175.905 103.707 175.905 129.769Z" fill="#028090"/>
</svg>
